<?xml version="1.0" encoding="utf-8"?>
<!-- Generator: Adobe Illustrator 23.0.1, SVG Export Plug-In . SVG Version: 6.00 Build 0)  -->
<svg version="1.1" id="Calque_1" xmlns="http://www.w3.org/2000/svg" xmlns:xlink="http://www.w3.org/1999/xlink" x="0px" y="0px"
	 viewBox="0 0 432 432" style="enable-background:new 0 0 432 432;" xml:space="preserve">
<style type="text/css">
	.st0{fill:#768769;}
	.st1{fill:#FE1D0F;}
	.st2{fill:#E8DE23;}
	.st3{fill:#01A5EE;}
	.st4{fill:#1A1A1A;}
	.st5{fill:#A84B3D;}
	.st6{fill:#A29D3E;}
	.st7{fill:#E3B550;}
	.st8{fill:#EC904F;}
	.st9{fill:#A29E35;}
	.st10{fill:#E4B646;}
	.st11{fill:#EE9047;}
	.st12{fill:#65C8D0;}
	.st13{fill:#5C9B62;}
	.st14{fill:#F06BA4;}
	.st15{fill:#E5C81F;}
	.st16{fill:#FBB03B;}
	.st17{fill:#F9CC3D;}
	.st18{fill:#9DA89F;}
	.st19{fill:#EDB23B;}
	.st20{fill:#D38E44;}
	.st21{fill:#333333;}
	.st22{fill:#BF8292;}
	.st23{fill:#D8B2BE;}
	.st24{fill:#6E8D71;}
	.st25{fill:#FF9708;}
	.st26{fill:#D08D85;}
	.st27{fill:#F7931E;}
	.st28{fill:#AF8E9C;}
	.st29{fill:#E0879F;}
	.st30{fill:#BA9BC9;}
	.st31{fill:#D18BAC;}
	.st32{fill:#C69C6D;}
	.st33{fill:#69786B;}
	.st34{fill:#A4BAB6;}
	.st35{fill:#736357;}
	.st36{fill:#603D41;}
	.st37{fill:#AA4A3A;}
	.st38{fill:#AA6739;}
	.st39{fill:#BC825B;}
	.st40{fill:#CC8C60;}
	.st41{fill:#DD852D;}
	.st42{fill:#C9885D;}
	.st43{fill:#998675;}
	.st44{fill:#B7835F;}
	.st45{fill:#ABA79E;}
	.st46{fill:#A7A7A7;}
	.st47{fill:#534741;}
	.st48{fill:#C1272D;}
	.st49{fill:#DDA57F;}
	.st50{fill:#A8704A;}
	.st51{fill:#D3844F;}
	.st52{fill:#86A54A;}
	.st53{fill:#C7B299;}
	.st54{fill:#D8A96A;}
	.st55{fill:#9BB28A;}
	.st56{fill:#8CC63F;}
	.st57{fill:#B3B3B3;}
	.st58{fill:#CE955B;}
	.st59{fill:#CCCCCC;}
	.st60{fill:#9E85C1;}
	.st61{fill:#AE7418;}
	.st62{fill:#B23F47;}
	.st63{fill:#8BAF51;}
	.st64{fill:#D38537;}
	.st65{fill:#CE8B49;}
	.st66{fill:#55A55D;}
	.st67{fill:#D8BB60;}
	.st68{fill:#58A05F;}
	.st69{fill:#D8924C;}
	.st70{fill:#856DAA;}
	.st71{fill:#C98847;}
	.st72{fill:#DB8B3B;}
	.st73{fill:#E5A857;}
	.st74{fill:#8158A5;}
	.st75{fill:#DB8D40;}
	.st76{fill:#93BA56;}
	.st77{fill:#A484A4;}
	.st78{fill:#96BC5B;}
	.st79{fill:#DDC06F;}
	.st80{fill:#89373D;}
	.st81{fill:#5C9962;}
</style>
<g>
	<path class="st4" d="M64.43,137.454c1.357-2.326,2.738-4.48,3.898-6.746c1.053-2.059,2.551-2.844,4.854-2.766
		c4.114,0.139,8.236,0.038,12.355,0.037c0.531,0,1.063,0,1.688,0c0.051-0.433,0.123-0.77,0.125-1.107
		c0.012-2.149,0.004-4.298,0.012-6.447c0.011-2.949,0.726-3.677,3.628-3.655c9.759,0.075,19.519,0.162,29.278,0.238
		c3.044,0.024,6.089,0.026,9.133,0.042c0.402,0.002,0.811-0.011,1.206,0.048c1.501,0.225,2.4,1.172,2.492,2.702
		c0.097,1.608,0.134,3.22,0.173,4.831c0.025,1.026,0.005,2.054,0.005,3.257c0.63,0.028,1.143,0.07,1.656,0.07
		c6.671,0.002,13.342-0.002,20.012-0.003c11.551-0.002,23.102,0.033,34.652-0.042c1.917-0.012,3.224,0.663,4.317,2.146
		c1.83,2.485,3.735,4.915,5.685,7.47c1.426,0,2.946-0.003,4.465,0.001c1.97,0.004,3.941-0.025,5.909,0.038
		c0.845,0.027,1.396-0.266,1.952-0.89c7.359-8.253,14.746-16.482,22.125-24.718c0.478-0.533,0.971-1.054,1.431-1.603
		c0.811-0.966,1.842-1.328,3.087-1.314c16.071,0.186,32.142,0.351,48.213,0.53c4.79,0.053,9.579,0.174,14.369,0.179
		c1.935,0.002,3.42,0.686,4.7,2.121c7.329,8.22,14.706,16.398,22.026,24.626c0.755,0.849,1.506,1.179,2.64,1.178
		c14.55-0.017,29.1,0.018,43.651,0.04c0.134,0,0.269,0,0.403,0.003c2.239,0.058,3.165,0.99,3.171,3.225
		c0.018,7.298,0.035,14.595,0.042,21.893c0.024,24.668,0.03,49.337,0.067,74.005c0.041,27.31,0.109,54.619,0.151,81.929
		c0.001,0.796-0.099,1.607-0.271,2.384c-0.227,1.021-0.938,1.615-1.983,1.726c-0.665,0.07-1.34,0.076-2.01,0.075
		c-40.517-0.031-81.034-0.074-121.551-0.097c-54.575-0.031-109.15-0.046-163.725-0.069c-10.118-0.004-20.236-0.017-30.354-0.026
		c-0.179,0-0.359-0.01-0.537,0.001c-1.87,0.108-3.262-0.393-3.304-3.359c-0.056-3.939-0.03-7.879-0.035-11.819
		c-0.066-52.202-0.131-104.404-0.197-156.606c-0.004-3.089-0.02-6.178-0.028-9.267c-0.001-0.492-0.014-0.986,0.016-1.477
		c0.103-1.69,1.139-2.739,2.834-2.774c2.014-0.042,4.029-0.009,6.044-0.009C63.388,137.454,63.878,137.454,64.43,137.454z
		 M267.116,296.579c0-0.035,0-0.071,0-0.106c7.835,0,15.67,0.026,23.505-0.006c13.521-0.055,27.041-0.153,40.562-0.206
		c0.839-0.003,1.406-0.179,1.864-0.953c1.161-1.963,2.489-3.829,3.617-5.81c3.562-6.259,6.059-12.951,7.944-19.888
		c2.014-7.41,3.319-14.929,3.607-22.613c0.196-5.242-0.004-10.47-0.493-15.691c-0.422-4.504-0.996-8.985-2.051-13.388
		c-2.396-9.999-6.421-19.337-11.547-28.223c-5.117-8.871-11.6-16.541-19.824-22.704c-0.833-0.624-1.653-0.928-2.699-0.934
		c-14.729-0.095-29.458-0.229-44.187-0.343c-18.714-0.145-37.427-0.276-56.141-0.434c-0.906-0.008-1.643,0.291-2.376,0.758
		c-3.194,2.035-5.988,4.535-8.569,7.29c-5.412,5.778-9.421,12.477-12.903,19.532c-8.122,16.456-11.278,33.84-9.833,52.102
		c0.647,8.174,2.489,16.075,5.29,23.766c3.832,10.52,9.436,19.856,18.036,27.226c0.749,0.642,1.454,0.877,2.399,0.872
		C224.584,296.731,245.85,296.657,267.116,296.579z M59.224,164.117c0,44.481,0,88.851,0,133.355
		c45.105-0.196,90.018-0.392,134.973-0.587c-0.063-0.242-0.062-0.341-0.11-0.401c-0.141-0.173-0.298-0.333-0.454-0.493
		c-3.996-4.093-7.379-8.657-10.1-13.676c-6.785-12.513-10.415-25.933-11.192-40.123c-0.24-4.379-0.281-8.775,0.187-13.146
		c0.424-3.956,0.818-7.925,1.496-11.842c1.935-11.177,6.052-21.586,11.454-31.515c4.03-7.408,8.928-14.147,15.258-19.782
		c0.151-0.134,0.265-0.31,0.586-0.693C153.784,164.847,106.501,164.482,59.224,164.117z M372.658,142.695
		c-104.613-0.073-209.086-0.147-313.586-0.22c0,5.6,0,11.034,0,16.611c104.58,0.812,209.044,1.622,313.586,2.433
		C372.658,155.216,372.658,149.06,372.658,142.695z M372.874,317.952c0-5.674,0-11.193,0-16.84c-0.587,0-1.069-0.002-1.552,0
		c-8.64,0.049-17.281,0.108-25.921,0.146c-40.113,0.178-80.225,0.347-120.338,0.524c-43.918,0.194-87.836,0.397-131.754,0.592
		c-10.789,0.048-21.579,0.08-32.368,0.126c-0.556,0.002-1.111,0.07-1.624,0.104c0,5.119,0,10.067,0,15.084
		C163.884,317.776,268.356,317.864,372.874,317.952z M372.976,296.07c-0.082-43.241-0.165-86.327-0.247-129.385
		c-2.447-0.368-50.071-0.601-51.122-0.258c0.48,0.443,0.937,0.867,1.397,1.289c3.205,2.943,6.233,6.056,8.831,9.553
		c13.672,18.405,20.982,39.009,21.471,61.995c0.209,9.858-0.76,19.563-3.177,29.13c-2.427,9.605-5.864,18.78-11.224,27.168
		c-0.107,0.167-0.146,0.377-0.194,0.508C350.132,296.07,361.486,296.07,372.976,296.07z M321.956,137.529
		c-0.243-0.333-0.378-0.555-0.548-0.745c-6.362-7.101-12.735-14.192-19.08-21.309c-0.511-0.574-1.062-0.708-1.766-0.715
		c-20.142-0.218-40.283-0.442-60.425-0.693c-0.888-0.011-1.482,0.258-2.068,0.917c-6.401,7.186-12.831,14.346-19.251,21.517
		c-0.224,0.25-0.416,0.529-0.652,0.833C219.444,137.643,319.018,137.826,321.956,137.529z M193.192,137.424
		c-0.933-1.225-1.779-2.208-2.475-3.288c-0.609-0.946-1.365-1.194-2.457-1.192c-24.346,0.04-48.692,0.043-73.038,0.053
		c-13.56,0.006-27.121,0.011-40.681,0.017c-0.403,0-0.811-0.03-1.206,0.027c-0.241,0.035-0.56,0.15-0.674,0.334
		c-0.788,1.273-1.53,2.575-2.394,4.049C111.339,137.424,152.132,137.424,193.192,137.424z M92.466,127.871
		c12.028,0,23.865,0,35.664,0c0-1.959,0-3.815,0-5.756c-11.974-0.115-23.807-0.301-35.664-0.261
		C92.466,123.942,92.466,125.856,92.466,127.871z"/>
	<g>
		<path class="st17" d="M242.976,202.182c-0.019,1.296-0.663,2.236-1.579,2.588c-0.929,0.357-2.035,0.127-2.691-0.656
			c-0.336-0.402-0.581-0.898-0.791-1.384c-2.604-6.026-5.2-12.056-7.778-18.093c-0.223-0.522-0.437-1.108-0.425-1.659
			c0.021-0.952,0.52-1.703,1.43-2.093c0.95-0.407,1.881-0.296,2.613,0.42c0.465,0.455,0.857,1.042,1.117,1.641
			c2.514,5.773,4.999,11.559,7.473,17.349C242.642,200.988,242.826,201.727,242.976,202.182z"/>
		<path class="st17" d="M272.604,288.558c-0.253,0.649-0.407,1.362-0.782,1.93c-0.539,0.815-1.422,1.067-2.371,0.87
			c-0.949-0.197-1.652-0.789-1.84-1.74c-0.233-1.177-0.342-2.381-0.447-3.579c-0.461-5.247-0.904-10.497-1.346-15.746
			c-0.045-0.533-0.093-1.073-0.059-1.605c0.082-1.273,0.976-2.224,2.157-2.361c1.271-0.147,2.418,0.576,2.679,1.899
			c0.267,1.352,0.367,2.741,0.487,4.118c0.454,5.203,0.886,10.408,1.326,15.613c0.015,0.178,0.021,0.357,0.032,0.535
			C272.494,288.514,272.549,288.536,272.604,288.558z"/>
		<path class="st17" d="M227.901,271.556c-0.173,0.376-0.341,1.056-0.737,1.556c-3.22,4.067-6.481,8.103-9.739,12.14
			c-0.221,0.274-0.499,0.519-0.793,0.716c-0.993,0.667-2.26,0.563-3.093-0.222c-0.793-0.748-0.996-1.942-0.456-2.956
			c0.208-0.39,0.497-0.741,0.775-1.089c2.967-3.698,5.934-7.395,8.916-11.081c0.39-0.482,0.811-0.968,1.307-1.33
			c0.787-0.575,1.673-0.588,2.53-0.104C227.416,269.64,227.801,270.366,227.901,271.556z"/>
		<path class="st17" d="M326.761,282.516c-0.013,1.761-1.793,2.943-3.392,2.199c-0.508-0.236-0.964-0.641-1.364-1.046
			c-3.17-3.208-6.322-6.434-9.478-9.657c-0.281-0.287-0.583-0.561-0.814-0.885c-0.724-1.016-0.666-2.197,0.116-3.084
			c0.759-0.861,1.989-1.089,3.05-0.507c0.424,0.233,0.822,0.546,1.163,0.891c3.199,3.242,6.387,6.496,9.57,9.754
			C326.244,280.829,326.786,281.536,326.761,282.516z"/>
		<path class="st17" d="M303.949,201.42c-1.601,0.037-2.793-1.375-2.413-2.943c0.132-0.546,0.435-1.071,0.747-1.549
			c2.15-3.286,4.321-6.559,6.492-9.83c0.295-0.444,0.585-0.909,0.962-1.278c0.897-0.875,2.213-0.941,3.188-0.225
			c0.929,0.683,1.248,1.875,0.79,2.99c-0.084,0.205-0.186,0.407-0.308,0.592c-2.385,3.612-4.76,7.231-7.171,10.826
			C305.526,201.063,304.88,201.399,303.949,201.42z"/>
		<path class="st17" d="M266.604,185.26c-0.195,2.717-0.396,5.434-0.584,8.151c-0.08,1.158-0.132,2.319-0.202,3.478
			c-0.024,0.401-0.029,0.807-0.104,1.2c-0.284,1.496-1.338,2.358-2.701,2.24c-1.269-0.11-2.202-1.139-2.254-2.566
			c-0.029-0.802,0.014-1.609,0.072-2.411c0.232-3.207,0.48-6.413,0.732-9.619c0.031-0.399,0.081-0.803,0.186-1.188
			c0.397-1.464,1.513-2.236,2.871-2.015C265.882,182.735,266.687,183.813,266.604,185.26z"/>
	</g>
	<g>
		<path class="st4" d="M306.125,230.874c1.196-0.873,2.344-1.712,3.512-2.565c-0.353-1.67-0.751-3.273-1.023-4.897
			c-0.527-3.155-0.677-6.318,0.116-9.462c0.433-1.717,1.176-3.284,2.321-4.642c3.45-4.091,9.009-3.705,11.698,0.916
			c2.375,4.082,2.215,8.295,0.09,12.444c-1.097,2.141-2.739,3.862-4.548,5.421c-0.811,0.699-1.65,1.366-2.573,2.127
			c1.662,3.864,3.672,7.45,7.135,10.016c0.391,0.29,0.844,0.506,1.289,0.71c0.993,0.453,1.909,0.299,2.753-0.392
			c0.929-0.761,1.564-1.745,1.961-2.843c0.697-1.933,1.299-3.901,1.928-5.858c0.329-1.021,0.571-2.074,0.964-3.069
			c0.395-1.001,1.225-1.556,2.309-1.544c1.023,0.011,1.836,0.523,2.187,1.495c0.188,0.521,0.279,1.18,0.135,1.7
			c-0.943,3.401-1.71,6.865-3.264,10.068c-0.772,1.59-1.795,2.99-3.208,4.08c-2.371,1.828-4.942,2.177-7.703,1.025
			c-1.676-0.699-3.098-1.78-4.395-3.033c-2.348-2.267-4.096-4.96-5.563-7.851c-0.222-0.437-0.441-0.875-0.703-1.395
			c-1.12,0.455-1.93,1.274-2.907,2.024c0.135,0.376,0.242,0.752,0.401,1.104c1.695,3.755,2.675,7.691,2.844,11.802
			c0.127,3.104-0.234,6.167-1.239,9.128c-0.717,2.115-1.839,3.975-3.544,5.449c-3.581,3.095-8.138,2.718-11.136-0.949
			c-2.038-2.492-2.86-5.44-3.011-8.591c-0.177-3.716,0.805-7.176,2.509-10.448c1.459-2.801,3.339-5.297,5.572-7.524
			c0.345-0.344,0.78-0.599,1.226-0.935c-2.578-3.884-5.46-7.123-8.86-10.219c-0.29,1.307-0.521,2.386-0.768,3.462
			c-1.076,4.671-2.305,9.301-4.305,13.672c-0.852,1.862-1.861,3.674-2.991,5.38c-0.675,1.02-1.627,1.926-2.623,2.652
			c-2.641,1.925-5.525,2.142-8.508,0.809c-1.577-0.705-2.879-1.794-4.072-3.024c-0.306-0.316-0.615-0.629-1.015-1.037
			c-0.164,0.479-0.298,0.838-0.411,1.204c-0.58,1.889-1.272,3.729-2.43,5.353c-2.14,3-5.179,3.859-8.476,2.215
			c-1.342-0.669-2.509-1.691-3.743-2.571c-0.348-0.249-0.649-0.564-1.096-0.96c0,1.224,0.006,2.273-0.001,3.323
			c-0.027,4.204-0.008,8.409-0.12,12.61c-0.029,1.09-0.33,2.23-0.755,3.241c-1.027,2.442-3.459,3.092-5.652,1.605
			c-1.246-0.845-2.14-2.026-2.945-3.273c-1.961-3.035-3.275-6.357-4.27-9.811c-1.317-4.573-2.043-9.254-2.477-13.986
			c-0.437-4.766-0.876-9.532-1.33-14.297c-0.05-0.53-0.201-1.05-0.317-1.63c-0.664,0.14-0.807,0.71-1.056,1.13
			c-1.744,2.934-3.052,6.071-4.265,9.251c-1.936,5.076-3.154,10.347-4.277,15.645c-0.157,0.742-0.333,1.492-0.616,2.192
			c-1.009,2.5-3.648,2.91-5.313,0.802c-0.632-0.8-1.165-1.707-1.59-2.636c-1.207-2.644-2.335-5.324-3.494-7.99
			c-0.172-0.395-0.345-0.788-0.59-1.346c-0.424,0.566-0.74,0.985-1.052,1.406c-1.737,2.343-3.611,4.566-5.818,6.485
			c-2.296,1.995-4.839,3.562-7.87,4.132c-5.056,0.951-9.303-0.459-12.527-4.551c-2.375-3.014-3.462-6.544-3.812-10.307
			c-0.271-2.914-0.132-5.817,0.752-8.64c0.842-2.687,2.283-4.955,4.708-6.487c2.984-1.885,6.021-1.988,8.911,0.105
			c1.4,1.013,2.65,2.267,3.833,3.538c1.024,1.099,0.9,2.584-0.077,3.499c-0.996,0.932-2.371,0.91-3.515-0.114
			c-0.8-0.715-1.511-1.531-2.32-2.234c-1.685-1.464-2.998-1.866-5.22,0.386c-0.937,0.95-1.434,2.176-1.695,3.456
			c-0.739,3.624-0.635,7.211,0.727,10.694c0.308,0.787,0.69,1.561,1.146,2.271c2.074,3.23,5.295,4.368,8.968,3.231
			c1.566-0.485,2.941-1.311,4.185-2.352c3.409-2.851,5.959-6.409,8.315-10.129c0.347-0.548,0.144-1.007,0.009-1.526
			c-0.951-3.633-1.989-7.248-2.8-10.913c-1.372-6.206-2.497-12.463-2.747-18.834c-0.172-4.377,0.271-8.69,2.021-12.754
			c0.594-1.379,1.372-2.741,2.329-3.891c2.687-3.229,6.842-3.437,9.976-0.631c1.396,1.249,2.354,2.804,3.053,4.524
			c1.505,3.702,2.083,7.585,2.127,11.549c0.12,11.052-2.583,21.438-7.544,31.262c-0.468,0.928-0.55,1.697-0.164,2.642
			c0.98,2.401,1.884,4.833,2.83,7.249c0.155,0.395,0.369,0.767,0.654,1.352c0.632-2.404,1.162-4.564,1.77-6.702
			c1.412-4.961,3.236-9.768,5.64-14.336c0.726-1.38,1.569-2.714,2.496-3.968c0.544-0.737,1.287-1.388,2.065-1.88
			c1.964-1.241,4.268-0.733,5.5,1.243c0.557,0.893,1.015,1.929,1.197,2.957c0.468,2.639,0.819,5.302,1.101,7.968
			c0.495,4.67,0.78,9.365,1.38,14.02c0.66,5.123,1.948,10.102,4.393,14.711c0.258,0.485,0.448,1.043,1.101,1.459
			c0.04-0.568,0.083-0.995,0.097-1.424c0.198-5.958-0.09-11.902-0.497-17.844c-0.092-1.339-0.124-2.683-0.252-4.018
			c-0.054-0.567-0.243-1.131-0.436-1.672c-1.947-5.461-2.219-11.016-0.935-16.653c0.38-1.67,1.043-3.234,2.032-4.646
			c2.235-3.19,5.828-3.9,9.051-1.715c2.774,1.881,4.163,4.624,4.512,7.894c0.415,3.895-0.969,7.232-3.498,10.097
			c-1.028,1.165-2.293,2.121-3.465,3.156c-0.469,0.414-1.011,0.748-1.462,1.178c-0.637,0.607-0.695,0.986-0.287,1.793
			c1.325,2.621,2.997,4.99,5.263,6.887c0.61,0.511,1.307,0.949,2.024,1.295c0.897,0.432,1.43,0.306,1.978-0.507
			c0.52-0.771,1.041-1.603,1.291-2.484c0.694-2.448,1.28-4.929,1.828-7.415c0.105-0.476-0.089-1.056-0.261-1.547
			c-1.298-3.712-2.051-7.507-1.792-11.459c0.177-2.704,0.701-5.339,2.005-7.736c0.614-1.128,1.345-2.242,2.231-3.162
			c2.512-2.609,5.866-2.789,8.692-0.484c2.735,2.231,4.265,5.167,4.474,8.697c0.322,5.433-2.621,10.126-7.608,12.3
			c-0.451,0.197-0.92,0.353-1.364,0.563c-0.87,0.41-1.235,1.236-0.806,2.107c1.161,2.358,2.655,4.473,4.889,5.944
			c1.781,1.173,3.393,1.049,4.832-0.517c0.895-0.975,1.649-2.122,2.275-3.294c1.93-3.612,3.163-7.499,4.156-11.452
			c0.719-2.861,1.244-5.769,1.89-8.649c0.169-0.753-0.079-1.216-0.624-1.739c-2.164-2.072-4.37-4.116-6.367-6.344
			c-2.753-3.071-4.754-6.608-5.652-10.683c-0.512-2.322-0.431-4.633,0.481-6.858c1.979-4.83,7.454-6.241,11.527-2.987
			c1.461,1.167,2.534,2.645,3.397,4.283c1.501,2.847,2.308,5.908,2.705,9.082c0.462,3.702,0.443,7.412,0.063,11.119
			c-0.069,0.671,0.047,1.167,0.606,1.64c4.117,3.487,7.79,7.391,10.896,11.814C305.854,230.673,305.938,230.718,306.125,230.874z
			 M215.146,233.362c0.289-0.567,0.477-0.859,0.594-1.176c0.613-1.678,1.268-3.345,1.8-5.049c2.051-6.576,3.215-13.282,2.881-20.203
			c-0.128-2.65-0.485-5.265-1.429-7.746c-0.422-1.108-1.017-2.204-1.757-3.125c-1.093-1.361-2.312-1.306-3.309,0.11
			c-0.66,0.937-1.183,2.003-1.593,3.077c-0.915,2.403-1.246,4.933-1.325,7.492c-0.122,3.951,0.404,7.85,1.028,11.737
			C212.821,223.376,213.765,228.242,215.146,233.362z M304.629,238.977c-0.267,0.216-0.49,0.359-0.666,0.546
			c-1.971,2.109-3.608,4.446-4.736,7.114c-0.955,2.259-1.447,4.606-1.208,7.069c0.157,1.622,0.566,3.174,1.496,4.54
			c1.39,2.038,3.064,2.151,4.753,0.333c0.904-0.973,1.441-2.147,1.806-3.407c0.68-2.346,0.882-4.749,0.749-7.175
			C306.653,244.889,305.917,241.911,304.629,238.977z M289.457,213.941c0.053-0.846,0.129-1.375,0.112-1.902
			c-0.048-1.519-0.064-3.043-0.218-4.553c-0.296-2.906-0.934-5.732-2.34-8.333c-0.579-1.071-1.269-2.064-2.291-2.76
			c-1.175-0.799-2.502-0.499-3.222,0.722c-0.201,0.34-0.326,0.734-0.437,1.117c-0.458,1.576-0.158,3.111,0.353,4.605
			C282.919,207.239,285.869,210.605,289.457,213.941z M268.562,232.919c1.028-0.428,1.857-0.743,2.66-1.113
			c2.22-1.023,3.584-2.767,4.097-5.133c0.549-2.532-0.094-4.78-1.868-6.672c-1.202-1.282-2.009-1.245-3.035,0.143
			c-0.42,0.569-0.792,1.196-1.071,1.846C267.846,225.477,267.868,229.08,268.562,232.919z M250.534,235.598
			c0.11,0.067,0.219,0.134,0.329,0.2c1.089-0.973,2.229-1.895,3.252-2.933c0.979-0.992,1.657-2.206,2.092-3.546
			c0.647-1.994,0.426-3.899-0.699-5.643c-0.396-0.614-0.999-1.142-1.611-1.555c-0.688-0.464-1.159-0.387-1.617,0.301
			c-0.536,0.806-1.033,1.688-1.307,2.608C249.937,228.51,249.961,232.05,250.534,235.598z M314.055,225.103
			c2.331-1.993,4.351-3.851,5.098-6.678c0.511-1.934,0.35-3.828-0.679-5.575c-0.956-1.625-2.409-1.771-3.552-0.271
			c-0.604,0.794-1.052,1.776-1.321,2.743c-0.584,2.1-0.407,4.261-0.159,6.398C313.564,222.766,313.814,223.797,314.055,225.103z"/>
		<g>
			<path class="st4" d="M124.372,261.568c-5.617,0.189-11.101,0.374-16.656,0.561c-0.061,0.466-0.128,0.806-0.146,1.148
				c-0.094,1.743-0.154,3.488-0.275,5.229c-0.036,0.522-0.145,1.075-0.37,1.542c-0.449,0.935-1.43,1.397-2.458,1.26
				c-1.039-0.138-1.72-0.741-2.015-1.724c-0.125-0.417-0.132-0.883-0.119-1.325c0.289-9.893,1.284-19.734,2.317-29.568
				c0.822-7.832,1.794-15.652,3.721-23.305c0.73-2.898,1.692-5.745,2.679-8.569c0.391-1.12,1.018-2.209,1.745-3.151
				c1.916-2.484,4.966-2.438,6.793,0.115c0.717,1.002,1.239,2.178,1.671,3.341c1.329,3.58,2.088,7.318,2.631,11.079
				c1.254,8.677,2.443,17.363,3.55,26.06c1.034,8.121,1.931,16.259,2.881,24.391c0.067,0.577,0.12,1.162,0.097,1.741
				c-0.049,1.267-0.928,2.222-2.133,2.387c-1.092,0.149-2.243-0.539-2.613-1.678c-0.219-0.673-0.29-1.398-0.388-2.106
				c-0.166-1.196-0.303-2.397-0.449-3.596C124.688,264.201,124.545,263.003,124.372,261.568z M123.737,256.559
				c-0.051-0.701-0.073-1.315-0.143-1.925c-0.496-4.311-0.944-8.628-1.519-12.928c-1.043-7.802-2.088-15.605-3.29-23.383
				c-0.47-3.038-1.358-6.012-2.08-9.009c-0.107-0.445-0.183-0.954-0.77-1.294c-0.401,1.068-0.813,2.056-1.146,3.071
				c-2.213,6.748-3.403,13.717-4.24,20.737c-0.917,7.683-1.623,15.392-2.403,23.091c-0.07,0.693-0.009,1.399-0.009,2.148
				C113.328,256.898,118.456,256.731,123.737,256.559z"/>
			<path class="st4" d="M157.964,218.696c-0.287,0.612-0.45,1.007-0.651,1.381c-0.971,1.81-1.857,3.675-2.953,5.406
				c-1.484,2.346-3.549,4.131-5.99,5.461c-3.329,1.813-6.539,1.496-9.601-0.627c-1.887-1.308-3.161-3.14-4.157-5.178
				c-1.528-3.127-2.357-6.462-2.879-9.879c-0.501-3.283-0.541-6.595-0.496-9.909c0.004-0.267,0.019-0.538,0.068-0.8
				c0.266-1.404,1.325-2.322,2.584-2.256c1.278,0.067,2.273,1.06,2.377,2.472c0.069,0.935,0.044,1.879,0.029,2.818
				c-0.047,3.052,0.086,6.097,0.819,9.065c0.502,2.032,1.175,4.029,1.898,5.996c0.48,1.306,1.295,2.453,2.388,3.359
				c1.507,1.249,3.006,1.387,4.712,0.438c1.88-1.046,3.343-2.529,4.494-4.334c1.65-2.587,2.767-5.411,3.665-8.325
				c0.856-2.777,1.652-5.573,2.491-8.355c0.18-0.597,0.376-1.201,0.659-1.753c0.51-0.997,1.349-1.553,2.496-1.489
				c1.205,0.067,2.093,0.739,2.361,1.865c0.319,1.337,0.478,2.732,0.529,4.109c0.162,4.382,0.307,8.766,0.339,13.15
				c0.043,5.862,0.143,11.731-0.09,17.584c-0.293,7.337-1.059,14.643-3.39,21.67c-0.63,1.9-1.391,3.796-2.383,5.527
				c-2.115,3.691-5.314,5.998-9.586,6.615c-3.693,0.534-8.471-0.648-10.878-5.644c-0.884-1.834-1.388-3.776-1.728-5.763
				c-0.225-1.316,0.509-2.447,1.716-2.832c1.168-0.373,2.426,0.207,2.968,1.442c0.249,0.567,0.354,1.196,0.531,1.795
				c0.253,0.856,0.461,1.73,0.78,2.562c1.067,2.783,3.221,4.023,6.616,3.317c2.561-0.532,4.343-2.211,5.544-4.503
				c1.256-2.395,2.011-4.968,2.651-7.579c1.004-4.096,1.471-8.272,1.87-12.459c0.749-7.862,0.384-15.739,0.32-23.611
				C158.082,219.275,158.034,219.116,157.964,218.696z"/>
			<path class="st4" d="M93.08,253.443c-0.02-3.843-1.026-7.416-2.934-10.746c-1.794-3.132-4.099-5.857-6.633-8.404
				c-2.525-2.537-5.082-5.044-7.546-7.638c-1.823-1.919-3.362-4.067-4.544-6.453c-1.905-3.844-2.193-7.788-0.712-11.832
				c0.737-2.014,1.907-3.741,3.571-5.11c2.892-2.38,6.218-2.679,9.493-0.871c1.55,0.856,2.861,1.996,3.96,3.373
				c2.341,2.93,3.798,6.259,4.332,9.968c0.091,0.634,0.013,1.357-0.208,1.958c-0.352,0.957-1.146,1.461-2.197,1.466
				c-1.048,0.005-1.798-0.498-2.234-1.43c-0.167-0.356-0.249-0.765-0.304-1.159c-0.352-2.531-1.304-4.825-2.745-6.919
				c-0.768-1.116-1.703-2.078-2.882-2.77c-1.636-0.961-2.863-0.828-4.261,0.481c-1.669,1.563-2.296,3.584-2.428,5.791
				c-0.104,1.743,0.39,3.362,1.161,4.905c1.051,2.101,2.47,3.947,4.081,5.633c1.977,2.07,4.013,4.086,6.057,6.091
				c2.755,2.703,5.32,5.558,7.426,8.807c3.21,4.949,4.843,10.343,4.554,16.261c-0.207,4.231-1.454,8.081-4.37,11.272
				c-1.348,1.475-2.91,2.639-4.797,3.345c-3.74,1.4-7.747,0.146-9.861-3.241c-0.772-1.238-1.341-2.63-1.819-4.015
				c-0.479-1.388-0.745-2.852-1.069-4.291c-0.087-0.386-0.096-0.806-0.053-1.201c0.13-1.178,1.045-2.086,2.177-2.218
				c1.17-0.136,2.223,0.488,2.606,1.659c0.262,0.804,0.341,1.666,0.583,2.478c0.408,1.367,0.765,2.767,1.35,4.06
				c1.087,2.406,3.011,2.953,5.283,1.59c1.829-1.097,3.045-2.738,3.877-4.673C92.746,257.859,93.084,255.869,93.08,253.443z"/>
		</g>
	</g>
	<path class="st4" d="M72.844,170.485c1.458,0.156,3.102,0.314,4.741,0.519c0.436,0.054,0.871,0.212,1.276,0.39
		c1.401,0.618,2.208,1.676,2.143,3.243c-0.071,1.695-0.147,3.397-0.358,5.078c-0.25,1.985-1.356,3.006-3.39,3.137
		c-2.317,0.15-4.643,0.175-6.964,0.253c-0.134,0.004-0.268-0.007-0.402-0.018c-2.495-0.204-3.787-1.396-3.941-3.881
		c-0.107-1.735,0.009-3.484,0.035-5.226c0.004-0.267,0.059-0.533,0.095-0.798c0.194-1.438,0.964-2.266,2.422-2.423
		C69.877,170.611,71.265,170.579,72.844,170.485z M71.007,177.886c1.62,0.261,3.809,0.205,4.831-0.131c0-0.587,0-1.197,0-1.922
		c-1.62-0.332-3.222-0.231-4.831-0.211C71.007,176.51,71.007,177.205,71.007,177.886z"/>
</g>
</svg>
